<svg id="svg" version="1.1" width="400" height="715.0097465886939" viewBox="0 0 400 715.0097465886939" xmlns="http://www.w3.org/2000/svg" xmlns:xlink="http://www.w3.org/1999/xlink" ><g id="svgg"><path id="path0" d="M170.600 12.001 C 165.540 12.183,159.420 12.522,157.000 12.754 C 154.580 12.986,150.170 13.283,147.200 13.413 C 144.230 13.543,139.730 13.897,137.200 14.198 C 134.670 14.499,130.800 14.857,128.600 14.992 C 126.400 15.127,122.800 15.488,120.600 15.795 C 118.400 16.101,115.160 16.463,113.400 16.599 C 111.640 16.735,108.490 17.094,106.400 17.395 C 104.310 17.697,99.720 18.325,96.200 18.790 C 92.680 19.256,88.360 19.889,86.600 20.196 C 84.840 20.503,82.230 20.873,80.800 21.018 C 79.370 21.164,77.300 21.522,76.200 21.815 C 75.100 22.107,73.030 22.463,71.600 22.605 C 70.170 22.747,68.280 23.055,67.400 23.290 C 66.520 23.524,64.450 23.942,62.800 24.217 C 39.228 28.157,28.477 34.638,18.032 51.202 C 17.684 51.753,16.968 53.103,16.441 54.202 C 15.913 55.301,15.321 56.524,15.125 56.920 C 14.396 58.391,12.776 63.188,12.375 65.062 C 12.147 66.128,11.744 67.900,11.480 69.000 C 11.109 70.546,11.000 138.452,11.000 368.400 L 11.000 665.800 12.063 669.800 C 15.482 682.659,24.060 693.412,35.000 698.553 C 36.320 699.173,37.940 699.934,38.600 700.243 C 40.476 701.121,43.859 701.971,48.000 702.604 C 52.896 703.352,346.312 703.506,352.036 702.764 C 355.430 702.323,359.989 701.177,362.200 700.207 C 376.467 693.952,384.430 684.762,388.724 669.600 L 389.800 665.800 389.800 368.400 C 389.800 79.526,389.779 70.908,389.054 67.800 C 386.019 54.790,380.746 45.610,371.931 37.989 C 363.270 30.501,356.792 27.627,342.200 24.797 C 339.780 24.327,336.540 23.693,335.000 23.386 C 329.369 22.265,324.940 21.483,322.400 21.162 C 320.970 20.981,318.360 20.564,316.600 20.234 C 314.840 19.905,312.050 19.455,310.400 19.236 C 307.197 18.809,303.819 18.335,297.400 17.409 C 295.200 17.091,292.050 16.720,290.400 16.582 C 288.750 16.445,285.870 16.092,284.000 15.797 C 282.130 15.502,278.620 15.146,276.200 15.007 C 273.780 14.868,270.810 14.585,269.600 14.379 C 268.390 14.174,263.080 13.724,257.800 13.380 C 252.520 13.036,245.860 12.585,243.000 12.379 C 235.951 11.869,182.043 11.588,170.600 12.001 M229.600 181.367 C 242.509 181.989,253.463 182.852,260.400 183.794 C 262.710 184.107,266.040 184.480,267.800 184.621 C 269.560 184.762,271.810 185.053,272.800 185.267 C 273.790 185.481,276.580 185.910,279.000 186.221 C 281.420 186.532,284.480 186.972,285.800 187.199 C 297.748 189.256,305.004 190.643,307.800 191.404 C 308.900 191.703,310.700 192.075,311.800 192.229 C 312.900 192.383,314.249 192.677,314.798 192.882 C 315.347 193.087,316.967 193.496,318.398 193.792 C 323.067 194.756,338.411 198.817,342.800 200.251 C 343.790 200.575,345.500 201.082,346.600 201.379 C 354.710 203.566,358.672 207.890,359.091 215.013 C 359.293 218.439,358.807 219.806,354.827 227.007 C 353.272 229.820,352.000 232.198,352.000 232.291 C 352.000 232.384,351.307 233.662,350.459 235.130 C 348.799 238.006,346.738 241.770,344.792 245.478 C 344.121 246.755,343.409 248.070,343.208 248.400 C 342.460 249.631,339.647 254.706,337.999 257.800 C 337.061 259.560,335.868 261.765,335.347 262.700 C 334.826 263.635,333.974 265.165,333.453 266.100 C 332.932 267.035,331.739 269.240,330.801 271.000 C 325.939 280.126,324.346 282.118,320.456 283.942 L 318.200 285.000 201.800 285.118 C 118.195 285.202,84.747 285.111,83.083 284.794 C 78.397 283.902,75.732 281.619,72.580 275.800 C 72.103 274.920,71.034 272.940,70.204 271.400 C 69.375 269.860,67.999 267.399,67.148 265.930 C 66.297 264.462,65.600 263.172,65.600 263.064 C 65.600 262.955,64.654 261.187,63.498 259.133 C 62.342 257.080,61.171 254.950,60.896 254.400 C 60.621 253.850,59.669 252.140,58.782 250.600 C 57.894 249.060,56.897 247.260,56.567 246.600 C 55.656 244.782,52.233 238.505,47.623 230.200 C 39.952 216.382,39.622 211.963,45.801 205.785 C 48.282 203.304,48.854 203.009,54.800 201.158 C 60.859 199.272,77.322 194.854,82.200 193.805 C 83.520 193.521,85.673 192.999,86.984 192.645 C 88.295 192.290,89.719 192.000,90.149 192.000 C 90.578 192.000,91.846 191.743,92.965 191.430 C 95.722 190.657,102.742 189.309,115.000 187.199 C 116.320 186.972,119.380 186.532,121.800 186.221 C 124.220 185.910,127.010 185.478,128.000 185.261 C 128.990 185.043,131.420 184.743,133.400 184.594 C 135.380 184.445,137.767 184.159,138.705 183.959 C 139.643 183.758,143.603 183.329,147.505 183.004 C 151.407 182.679,156.670 182.241,159.200 182.031 C 162.976 181.717,177.020 181.072,188.600 180.681 C 195.290 180.455,218.836 180.849,229.600 181.367 M44.429 271.818 C 45.718 272.971,46.810 274.821,50.848 282.696 C 52.851 286.603,55.493 291.690,56.718 294.000 C 57.943 296.310,59.808 299.910,60.864 302.000 L 62.782 305.800 62.791 354.007 L 62.800 402.214 61.786 403.706 C 59.845 406.563,58.835 406.800,48.600 406.800 C 37.585 406.800,36.327 406.395,34.615 402.298 C 33.642 399.969,33.685 277.204,34.660 274.767 C 36.113 271.135,41.760 269.430,44.429 271.818 M363.700 271.869 C 367.073 274.207,366.800 268.322,366.800 338.591 C 366.800 405.465,366.892 402.309,364.885 404.528 C 363.021 406.589,361.842 406.800,352.200 406.800 C 342.310 406.800,341.463 406.631,339.200 404.207 L 338.200 403.136 338.095 354.467 L 337.991 305.798 339.935 301.999 C 341.004 299.910,343.506 295.050,345.495 291.200 C 356.413 270.065,355.825 270.881,360.178 270.825 C 361.699 270.806,362.514 271.048,363.700 271.869 M60.076 437.277 C 63.021 439.526,62.821 435.411,62.705 491.270 C 62.602 540.448,62.585 541.419,61.812 542.400 C 61.379 542.950,59.759 544.557,58.212 545.972 C 56.666 547.386,53.181 550.626,50.470 553.172 C 43.255 559.945,41.319 560.883,38.060 559.185 C 36.142 558.185,35.411 557.403,34.615 555.498 C 33.559 552.970,33.695 442.165,34.757 440.084 C 36.731 436.218,37.640 435.964,49.032 436.092 L 58.664 436.200 60.076 437.277 M363.776 437.354 C 367.033 439.839,366.781 434.815,366.791 497.650 C 366.801 561.913,367.132 556.895,362.740 559.185 C 359.553 560.846,357.602 559.981,351.348 554.136 C 348.957 551.901,346.460 549.585,345.800 548.989 C 342.109 545.657,338.662 542.089,338.356 541.284 C 337.962 540.249,337.848 442.462,338.237 440.513 C 338.509 439.153,339.921 437.609,341.800 436.617 C 342.817 436.080,344.470 436.000,352.632 436.092 L 362.264 436.200 363.776 437.354 M324.350 548.926 C 327.257 550.210,351.200 570.929,351.633 572.536 C 352.422 575.465,347.621 577.498,337.821 578.383 C 334.972 578.640,331.822 579.003,330.821 579.188 C 329.819 579.374,327.200 579.645,325.000 579.790 C 322.800 579.936,318.930 580.305,316.400 580.611 C 313.870 580.916,309.820 581.276,307.400 581.410 C 304.980 581.545,301.650 581.829,300.000 582.043 C 297.263 582.397,291.629 582.784,271.600 583.989 C 229.759 586.507,169.565 586.506,129.000 583.987 C 125.260 583.755,117.970 583.308,112.800 582.994 C 107.630 582.679,102.140 582.249,100.600 582.037 C 99.060 581.825,95.730 581.544,93.200 581.412 C 90.670 581.280,86.620 580.919,84.200 580.610 C 81.780 580.300,78.000 579.930,75.800 579.786 C 73.600 579.643,70.981 579.374,69.979 579.188 C 68.978 579.003,65.828 578.653,62.979 578.412 C 49.867 577.300,46.235 574.363,51.892 569.446 C 53.381 568.151,55.860 565.968,57.400 564.596 C 58.940 563.224,62.741 559.858,65.848 557.115 C 68.954 554.372,71.924 551.721,72.448 551.223 C 73.788 549.950,77.166 548.405,79.459 548.017 C 80.526 547.837,135.490 547.714,201.600 547.744 L 321.800 547.800 324.350 548.926 " stroke="none" fill="#f17400" fill-rule="evenodd"></path></g></svg>